<mxfile host="app.diagrams.net" agent="Mozilla/5.0 (Windows NT 10.0; Win64; x64) AppleWebKit/537.36 (KHTML, like Gecko) Chrome/130.0.0.0 Safari/537.36" version="24.8.4">
  <diagram name="Page-1" id="GM40dVbvfgNcXeAkodNv">
    <mxGraphModel dx="2333" dy="1267" grid="1" gridSize="10" guides="1" tooltips="1" connect="1" arrows="1" fold="1" page="1" pageScale="1" pageWidth="827" pageHeight="1169" math="0" shadow="0">
      <root>
        <mxCell id="0" />
        <mxCell id="1" parent="0" />
        <mxCell id="lu-ZIFMta7nP-iSTY2ae-159" value="" style="rounded=0;whiteSpace=wrap;html=1;" vertex="1" parent="1">
          <mxGeometry x="420" y="110" width="280" height="560" as="geometry" />
        </mxCell>
        <mxCell id="lu-ZIFMta7nP-iSTY2ae-160" value="&lt;font style=&quot;font-size: 14px;&quot;&gt;books&lt;/font&gt;" style="rounded=0;whiteSpace=wrap;html=1;movable=1;resizable=1;rotatable=1;deletable=1;editable=1;locked=0;connectable=1;" vertex="1" parent="1">
          <mxGeometry x="420" y="110" width="280" height="40" as="geometry" />
        </mxCell>
        <mxCell id="lu-ZIFMta7nP-iSTY2ae-161" value="book_id" style="rounded=0;whiteSpace=wrap;html=1;movable=1;resizable=1;rotatable=1;deletable=1;editable=1;locked=0;connectable=1;fontColor=#000000;textShadow=1;" vertex="1" parent="1">
          <mxGeometry x="420" y="150" width="200" height="40" as="geometry" />
        </mxCell>
        <mxCell id="lu-ZIFMta7nP-iSTY2ae-162" value="INT 11" style="rounded=0;whiteSpace=wrap;html=1;movable=1;resizable=1;rotatable=1;deletable=1;editable=1;locked=0;connectable=1;" vertex="1" parent="1">
          <mxGeometry x="620" y="150" width="80" height="40" as="geometry" />
        </mxCell>
        <mxCell id="lu-ZIFMta7nP-iSTY2ae-163" value="book_titel" style="rounded=0;whiteSpace=wrap;html=1;movable=1;resizable=1;rotatable=1;deletable=1;editable=1;locked=0;connectable=1;" vertex="1" parent="1">
          <mxGeometry x="420" y="190" width="200" height="40" as="geometry" />
        </mxCell>
        <mxCell id="lu-ZIFMta7nP-iSTY2ae-164" value="VARCHAR 255" style="rounded=0;whiteSpace=wrap;html=1;movable=1;resizable=1;rotatable=1;deletable=1;editable=1;locked=0;connectable=1;" vertex="1" parent="1">
          <mxGeometry x="620" y="190" width="80" height="40" as="geometry" />
        </mxCell>
        <mxCell id="lu-ZIFMta7nP-iSTY2ae-165" value="book_series_fk" style="rounded=0;whiteSpace=wrap;html=1;movable=1;resizable=1;rotatable=1;deletable=1;editable=1;locked=0;connectable=1;" vertex="1" parent="1">
          <mxGeometry x="420" y="230" width="200" height="40" as="geometry" />
        </mxCell>
        <mxCell id="lu-ZIFMta7nP-iSTY2ae-166" value="INT 11" style="rounded=0;whiteSpace=wrap;html=1;movable=1;resizable=1;rotatable=1;deletable=1;editable=1;locked=0;connectable=1;" vertex="1" parent="1">
          <mxGeometry x="620" y="230" width="80" height="40" as="geometry" />
        </mxCell>
        <mxCell id="lu-ZIFMta7nP-iSTY2ae-167" value="book_summary" style="rounded=0;whiteSpace=wrap;html=1;movable=1;resizable=1;rotatable=1;deletable=1;editable=1;locked=0;connectable=1;" vertex="1" parent="1">
          <mxGeometry x="420" y="270" width="200" height="40" as="geometry" />
        </mxCell>
        <mxCell id="lu-ZIFMta7nP-iSTY2ae-168" value="TEXT" style="rounded=0;whiteSpace=wrap;html=1;movable=1;resizable=1;rotatable=1;deletable=1;editable=1;locked=0;connectable=1;" vertex="1" parent="1">
          <mxGeometry x="620" y="270" width="80" height="40" as="geometry" />
        </mxCell>
        <mxCell id="lu-ZIFMta7nP-iSTY2ae-169" value="book_age_rec_fk" style="rounded=0;whiteSpace=wrap;html=1;movable=1;resizable=1;rotatable=1;deletable=1;editable=1;locked=0;connectable=1;" vertex="1" parent="1">
          <mxGeometry x="420" y="310" width="200" height="40" as="geometry" />
        </mxCell>
        <mxCell id="lu-ZIFMta7nP-iSTY2ae-170" value="INT 11" style="rounded=0;whiteSpace=wrap;html=1;movable=1;resizable=1;rotatable=1;deletable=1;editable=1;locked=0;connectable=1;" vertex="1" parent="1">
          <mxGeometry x="620" y="310" width="80" height="40" as="geometry" />
        </mxCell>
        <mxCell id="lu-ZIFMta7nP-iSTY2ae-171" value="book_category_fk" style="rounded=0;whiteSpace=wrap;html=1;movable=1;resizable=1;rotatable=1;deletable=1;editable=1;locked=0;connectable=1;" vertex="1" parent="1">
          <mxGeometry x="420" y="350" width="200" height="40" as="geometry" />
        </mxCell>
        <mxCell id="lu-ZIFMta7nP-iSTY2ae-172" value="INT 11" style="rounded=0;whiteSpace=wrap;html=1;movable=1;resizable=1;rotatable=1;deletable=1;editable=1;locked=0;connectable=1;" vertex="1" parent="1">
          <mxGeometry x="620" y="350" width="80" height="40" as="geometry" />
        </mxCell>
        <mxCell id="lu-ZIFMta7nP-iSTY2ae-173" value="book_language_fk" style="rounded=0;whiteSpace=wrap;html=1;movable=1;resizable=1;rotatable=1;deletable=1;editable=1;locked=0;connectable=1;" vertex="1" parent="1">
          <mxGeometry x="420" y="390" width="200" height="40" as="geometry" />
        </mxCell>
        <mxCell id="lu-ZIFMta7nP-iSTY2ae-174" value="INT 11" style="rounded=0;whiteSpace=wrap;html=1;movable=1;resizable=1;rotatable=1;deletable=1;editable=1;locked=0;connectable=1;" vertex="1" parent="1">
          <mxGeometry x="620" y="390" width="80" height="40" as="geometry" />
        </mxCell>
        <mxCell id="lu-ZIFMta7nP-iSTY2ae-175" value="book_publishing_date" style="rounded=0;whiteSpace=wrap;html=1;movable=1;resizable=1;rotatable=1;deletable=1;editable=1;locked=0;connectable=1;" vertex="1" parent="1">
          <mxGeometry x="420" y="430" width="200" height="40" as="geometry" />
        </mxCell>
        <mxCell id="lu-ZIFMta7nP-iSTY2ae-176" value="DATE" style="rounded=0;whiteSpace=wrap;html=1;movable=1;resizable=1;rotatable=1;deletable=1;editable=1;locked=0;connectable=1;" vertex="1" parent="1">
          <mxGeometry x="620" y="430" width="80" height="40" as="geometry" />
        </mxCell>
        <mxCell id="lu-ZIFMta7nP-iSTY2ae-177" value="book_side_count" style="rounded=0;whiteSpace=wrap;html=1;movable=1;resizable=1;rotatable=1;deletable=1;editable=1;locked=0;connectable=1;" vertex="1" parent="1">
          <mxGeometry x="420" y="470" width="200" height="40" as="geometry" />
        </mxCell>
        <mxCell id="lu-ZIFMta7nP-iSTY2ae-178" value="INT 11" style="rounded=0;whiteSpace=wrap;html=1;movable=1;resizable=1;rotatable=1;deletable=1;editable=1;locked=0;connectable=1;" vertex="1" parent="1">
          <mxGeometry x="620" y="470" width="80" height="40" as="geometry" />
        </mxCell>
        <mxCell id="lu-ZIFMta7nP-iSTY2ae-179" value="book_price" style="rounded=0;whiteSpace=wrap;html=1;movable=1;resizable=1;rotatable=1;deletable=1;editable=1;locked=0;connectable=1;" vertex="1" parent="1">
          <mxGeometry x="420" y="510" width="200" height="40" as="geometry" />
        </mxCell>
        <mxCell id="lu-ZIFMta7nP-iSTY2ae-180" value="FLOAT 10,2" style="rounded=0;whiteSpace=wrap;html=1;movable=1;resizable=1;rotatable=1;deletable=1;editable=1;locked=0;connectable=1;" vertex="1" parent="1">
          <mxGeometry x="620" y="510" width="80" height="40" as="geometry" />
        </mxCell>
        <mxCell id="lu-ZIFMta7nP-iSTY2ae-181" value="book_img" style="rounded=0;whiteSpace=wrap;html=1;movable=1;resizable=1;rotatable=1;deletable=1;editable=1;locked=0;connectable=1;" vertex="1" parent="1">
          <mxGeometry x="420" y="550" width="200" height="40" as="geometry" />
        </mxCell>
        <mxCell id="lu-ZIFMta7nP-iSTY2ae-182" value="VARCHAR 255" style="rounded=0;whiteSpace=wrap;html=1;movable=1;resizable=1;rotatable=1;deletable=1;editable=1;locked=0;connectable=1;" vertex="1" parent="1">
          <mxGeometry x="620" y="550" width="80" height="40" as="geometry" />
        </mxCell>
        <mxCell id="lu-ZIFMta7nP-iSTY2ae-183" value="" style="rounded=0;whiteSpace=wrap;html=1;" vertex="1" parent="1">
          <mxGeometry x="860" y="110" width="280" height="120" as="geometry" />
        </mxCell>
        <mxCell id="lu-ZIFMta7nP-iSTY2ae-184" value="series_id" style="rounded=0;whiteSpace=wrap;html=1;" vertex="1" parent="1">
          <mxGeometry x="860" y="150" width="200" height="40" as="geometry" />
        </mxCell>
        <mxCell id="lu-ZIFMta7nP-iSTY2ae-185" value="book_series" style="rounded=0;whiteSpace=wrap;html=1;" vertex="1" parent="1">
          <mxGeometry x="860" y="110" width="280" height="40" as="geometry" />
        </mxCell>
        <mxCell id="lu-ZIFMta7nP-iSTY2ae-186" value="INT 11" style="rounded=0;whiteSpace=wrap;html=1;" vertex="1" parent="1">
          <mxGeometry x="1060" y="150" width="80" height="40" as="geometry" />
        </mxCell>
        <mxCell id="lu-ZIFMta7nP-iSTY2ae-187" value="series_name" style="rounded=0;whiteSpace=wrap;html=1;" vertex="1" parent="1">
          <mxGeometry x="860" y="190" width="200" height="40" as="geometry" />
        </mxCell>
        <mxCell id="lu-ZIFMta7nP-iSTY2ae-188" value="VARCHAR 255" style="rounded=0;whiteSpace=wrap;html=1;" vertex="1" parent="1">
          <mxGeometry x="1060" y="190" width="80" height="40" as="geometry" />
        </mxCell>
        <mxCell id="lu-ZIFMta7nP-iSTY2ae-189" value="" style="rounded=0;whiteSpace=wrap;html=1;" vertex="1" parent="1">
          <mxGeometry x="1190" y="250" width="280" height="120" as="geometry" />
        </mxCell>
        <mxCell id="lu-ZIFMta7nP-iSTY2ae-190" value="author_id" style="rounded=0;whiteSpace=wrap;html=1;" vertex="1" parent="1">
          <mxGeometry x="1190" y="290" width="200" height="40" as="geometry" />
        </mxCell>
        <mxCell id="lu-ZIFMta7nP-iSTY2ae-191" value="authors" style="rounded=0;whiteSpace=wrap;html=1;" vertex="1" parent="1">
          <mxGeometry x="1190" y="250" width="280" height="40" as="geometry" />
        </mxCell>
        <mxCell id="lu-ZIFMta7nP-iSTY2ae-192" value="INT 11" style="rounded=0;whiteSpace=wrap;html=1;" vertex="1" parent="1">
          <mxGeometry x="1390" y="290" width="80" height="40" as="geometry" />
        </mxCell>
        <mxCell id="lu-ZIFMta7nP-iSTY2ae-193" value="author_name" style="rounded=0;whiteSpace=wrap;html=1;" vertex="1" parent="1">
          <mxGeometry x="1190" y="330" width="200" height="40" as="geometry" />
        </mxCell>
        <mxCell id="lu-ZIFMta7nP-iSTY2ae-194" value="VARCHAR 255" style="rounded=0;whiteSpace=wrap;html=1;" vertex="1" parent="1">
          <mxGeometry x="1390" y="330" width="80" height="40" as="geometry" />
        </mxCell>
        <mxCell id="lu-ZIFMta7nP-iSTY2ae-195" value="" style="endArrow=classic;html=1;rounded=0;exitX=0;exitY=0.5;exitDx=0;exitDy=0;entryX=0;entryY=0.5;entryDx=0;entryDy=0;" edge="1" parent="1" source="lu-ZIFMta7nP-iSTY2ae-184" target="lu-ZIFMta7nP-iSTY2ae-165">
          <mxGeometry width="50" height="50" relative="1" as="geometry">
            <mxPoint x="830" y="270" as="sourcePoint" />
            <mxPoint x="690" y="70" as="targetPoint" />
            <Array as="points">
              <mxPoint x="820" y="170" />
              <mxPoint x="820" y="90" />
              <mxPoint x="380" y="90" />
              <mxPoint x="380" y="250" />
            </Array>
          </mxGeometry>
        </mxCell>
        <mxCell id="lu-ZIFMta7nP-iSTY2ae-196" value="" style="rounded=0;whiteSpace=wrap;html=1;" vertex="1" parent="1">
          <mxGeometry x="860" y="390" width="280" height="120" as="geometry" />
        </mxCell>
        <mxCell id="lu-ZIFMta7nP-iSTY2ae-197" value="book_fk" style="rounded=0;whiteSpace=wrap;html=1;" vertex="1" parent="1">
          <mxGeometry x="860" y="430" width="200" height="40" as="geometry" />
        </mxCell>
        <mxCell id="lu-ZIFMta7nP-iSTY2ae-198" value="book_illustrator" style="rounded=0;whiteSpace=wrap;html=1;" vertex="1" parent="1">
          <mxGeometry x="860" y="390" width="280" height="40" as="geometry" />
        </mxCell>
        <mxCell id="lu-ZIFMta7nP-iSTY2ae-199" value="INT 11" style="rounded=0;whiteSpace=wrap;html=1;" vertex="1" parent="1">
          <mxGeometry x="1060" y="430" width="80" height="40" as="geometry" />
        </mxCell>
        <mxCell id="lu-ZIFMta7nP-iSTY2ae-200" value="illustrator_fk" style="rounded=0;whiteSpace=wrap;html=1;" vertex="1" parent="1">
          <mxGeometry x="860" y="470" width="200" height="40" as="geometry" />
        </mxCell>
        <mxCell id="lu-ZIFMta7nP-iSTY2ae-201" value="VARCHAR 255" style="rounded=0;whiteSpace=wrap;html=1;" vertex="1" parent="1">
          <mxGeometry x="1060" y="470" width="80" height="40" as="geometry" />
        </mxCell>
        <mxCell id="lu-ZIFMta7nP-iSTY2ae-202" value="" style="rounded=0;whiteSpace=wrap;html=1;" vertex="1" parent="1">
          <mxGeometry x="860" y="250" width="280" height="120" as="geometry" />
        </mxCell>
        <mxCell id="lu-ZIFMta7nP-iSTY2ae-203" value="book_fk" style="rounded=0;whiteSpace=wrap;html=1;" vertex="1" parent="1">
          <mxGeometry x="860" y="290" width="200" height="40" as="geometry" />
        </mxCell>
        <mxCell id="lu-ZIFMta7nP-iSTY2ae-204" value="book_author" style="rounded=0;whiteSpace=wrap;html=1;" vertex="1" parent="1">
          <mxGeometry x="860" y="250" width="280" height="40" as="geometry" />
        </mxCell>
        <mxCell id="lu-ZIFMta7nP-iSTY2ae-205" value="INT 11" style="rounded=0;whiteSpace=wrap;html=1;" vertex="1" parent="1">
          <mxGeometry x="1060" y="290" width="80" height="40" as="geometry" />
        </mxCell>
        <mxCell id="lu-ZIFMta7nP-iSTY2ae-206" value="author_fk" style="rounded=0;whiteSpace=wrap;html=1;" vertex="1" parent="1">
          <mxGeometry x="860" y="330" width="200" height="40" as="geometry" />
        </mxCell>
        <mxCell id="lu-ZIFMta7nP-iSTY2ae-207" value="VARCHAR 255" style="rounded=0;whiteSpace=wrap;html=1;" vertex="1" parent="1">
          <mxGeometry x="1060" y="330" width="80" height="40" as="geometry" />
        </mxCell>
        <mxCell id="lu-ZIFMta7nP-iSTY2ae-208" value="" style="endArrow=classic;html=1;rounded=0;entryX=1;entryY=0.5;entryDx=0;entryDy=0;exitX=0;exitY=0.5;exitDx=0;exitDy=0;" edge="1" parent="1" source="lu-ZIFMta7nP-iSTY2ae-190" target="lu-ZIFMta7nP-iSTY2ae-207">
          <mxGeometry width="50" height="50" relative="1" as="geometry">
            <mxPoint x="790" y="370" as="sourcePoint" />
            <mxPoint x="840" y="320" as="targetPoint" />
            <Array as="points">
              <mxPoint x="1170" y="310" />
              <mxPoint x="1170" y="350" />
            </Array>
          </mxGeometry>
        </mxCell>
        <mxCell id="lu-ZIFMta7nP-iSTY2ae-209" value="" style="rounded=0;whiteSpace=wrap;html=1;" vertex="1" parent="1">
          <mxGeometry x="1190" y="390" width="280" height="120" as="geometry" />
        </mxCell>
        <mxCell id="lu-ZIFMta7nP-iSTY2ae-210" value="illustrator_id" style="rounded=0;whiteSpace=wrap;html=1;" vertex="1" parent="1">
          <mxGeometry x="1190" y="430" width="200" height="40" as="geometry" />
        </mxCell>
        <mxCell id="lu-ZIFMta7nP-iSTY2ae-211" value="illustrators" style="rounded=0;whiteSpace=wrap;html=1;" vertex="1" parent="1">
          <mxGeometry x="1190" y="390" width="280" height="40" as="geometry" />
        </mxCell>
        <mxCell id="lu-ZIFMta7nP-iSTY2ae-212" value="INT 11" style="rounded=0;whiteSpace=wrap;html=1;" vertex="1" parent="1">
          <mxGeometry x="1390" y="430" width="80" height="40" as="geometry" />
        </mxCell>
        <mxCell id="lu-ZIFMta7nP-iSTY2ae-213" value="illustrator_name" style="rounded=0;whiteSpace=wrap;html=1;" vertex="1" parent="1">
          <mxGeometry x="1190" y="470" width="200" height="40" as="geometry" />
        </mxCell>
        <mxCell id="lu-ZIFMta7nP-iSTY2ae-214" value="VARCHAR 255" style="rounded=0;whiteSpace=wrap;html=1;" vertex="1" parent="1">
          <mxGeometry x="1390" y="470" width="80" height="40" as="geometry" />
        </mxCell>
        <mxCell id="lu-ZIFMta7nP-iSTY2ae-215" value="" style="endArrow=none;html=1;rounded=0;" edge="1" parent="1">
          <mxGeometry width="50" height="50" relative="1" as="geometry">
            <mxPoint x="700" y="170" as="sourcePoint" />
            <mxPoint x="780" y="350" as="targetPoint" />
            <Array as="points">
              <mxPoint x="780" y="170" />
            </Array>
          </mxGeometry>
        </mxCell>
        <mxCell id="lu-ZIFMta7nP-iSTY2ae-216" value="" style="endArrow=classic;html=1;rounded=0;entryX=0;entryY=0.5;entryDx=0;entryDy=0;" edge="1" parent="1" target="lu-ZIFMta7nP-iSTY2ae-203">
          <mxGeometry width="50" height="50" relative="1" as="geometry">
            <mxPoint x="780" y="310" as="sourcePoint" />
            <mxPoint x="760" y="410" as="targetPoint" />
          </mxGeometry>
        </mxCell>
        <mxCell id="lu-ZIFMta7nP-iSTY2ae-217" value="" style="endArrow=classic;html=1;rounded=0;entryX=0;entryY=0.5;entryDx=0;entryDy=0;" edge="1" parent="1">
          <mxGeometry width="50" height="50" relative="1" as="geometry">
            <mxPoint x="780" y="350" as="sourcePoint" />
            <mxPoint x="860" y="449.40999999999997" as="targetPoint" />
            <Array as="points">
              <mxPoint x="780" y="450" />
            </Array>
          </mxGeometry>
        </mxCell>
        <mxCell id="lu-ZIFMta7nP-iSTY2ae-218" value="" style="endArrow=classic;html=1;rounded=0;entryX=1;entryY=0.5;entryDx=0;entryDy=0;exitX=0;exitY=0.5;exitDx=0;exitDy=0;" edge="1" parent="1" source="lu-ZIFMta7nP-iSTY2ae-210" target="lu-ZIFMta7nP-iSTY2ae-201">
          <mxGeometry width="50" height="50" relative="1" as="geometry">
            <mxPoint x="800" y="330" as="sourcePoint" />
            <mxPoint x="880" y="330" as="targetPoint" />
            <Array as="points">
              <mxPoint x="1170" y="450" />
              <mxPoint x="1170" y="490" />
            </Array>
          </mxGeometry>
        </mxCell>
        <mxCell id="lu-ZIFMta7nP-iSTY2ae-219" value="" style="rounded=0;whiteSpace=wrap;html=1;" vertex="1" parent="1">
          <mxGeometry x="80" y="120" width="280" height="120" as="geometry" />
        </mxCell>
        <mxCell id="lu-ZIFMta7nP-iSTY2ae-220" value="age_id" style="rounded=0;whiteSpace=wrap;html=1;" vertex="1" parent="1">
          <mxGeometry x="80" y="160" width="200" height="40" as="geometry" />
        </mxCell>
        <mxCell id="lu-ZIFMta7nP-iSTY2ae-221" value="book_age_rec" style="rounded=0;whiteSpace=wrap;html=1;" vertex="1" parent="1">
          <mxGeometry x="80" y="120" width="280" height="40" as="geometry" />
        </mxCell>
        <mxCell id="lu-ZIFMta7nP-iSTY2ae-222" value="INT 11" style="rounded=0;whiteSpace=wrap;html=1;" vertex="1" parent="1">
          <mxGeometry x="280" y="160" width="80" height="40" as="geometry" />
        </mxCell>
        <mxCell id="lu-ZIFMta7nP-iSTY2ae-223" value="age_value" style="rounded=0;whiteSpace=wrap;html=1;" vertex="1" parent="1">
          <mxGeometry x="80" y="200" width="200" height="40" as="geometry" />
        </mxCell>
        <mxCell id="lu-ZIFMta7nP-iSTY2ae-224" value="VARCHAR 255" style="rounded=0;whiteSpace=wrap;html=1;" vertex="1" parent="1">
          <mxGeometry x="280" y="200" width="80" height="40" as="geometry" />
        </mxCell>
        <mxCell id="lu-ZIFMta7nP-iSTY2ae-225" value="" style="endArrow=classic;html=1;rounded=0;entryX=0;entryY=0.5;entryDx=0;entryDy=0;exitX=1;exitY=0.5;exitDx=0;exitDy=0;" edge="1" parent="1" source="lu-ZIFMta7nP-iSTY2ae-222" target="lu-ZIFMta7nP-iSTY2ae-169">
          <mxGeometry width="50" height="50" relative="1" as="geometry">
            <mxPoint x="590" y="520" as="sourcePoint" />
            <mxPoint x="640" y="470" as="targetPoint" />
            <Array as="points">
              <mxPoint x="370" y="180" />
              <mxPoint x="370" y="330" />
            </Array>
          </mxGeometry>
        </mxCell>
        <mxCell id="lu-ZIFMta7nP-iSTY2ae-226" value="" style="rounded=0;whiteSpace=wrap;html=1;" vertex="1" parent="1">
          <mxGeometry x="860" y="530" width="280" height="120" as="geometry" />
        </mxCell>
        <mxCell id="lu-ZIFMta7nP-iSTY2ae-227" value="book_fk" style="rounded=0;whiteSpace=wrap;html=1;" vertex="1" parent="1">
          <mxGeometry x="860" y="570" width="200" height="40" as="geometry" />
        </mxCell>
        <mxCell id="lu-ZIFMta7nP-iSTY2ae-228" value="book_genre" style="rounded=0;whiteSpace=wrap;html=1;" vertex="1" parent="1">
          <mxGeometry x="860" y="530" width="280" height="40" as="geometry" />
        </mxCell>
        <mxCell id="lu-ZIFMta7nP-iSTY2ae-229" value="INT 11" style="rounded=0;whiteSpace=wrap;html=1;" vertex="1" parent="1">
          <mxGeometry x="1060" y="570" width="80" height="40" as="geometry" />
        </mxCell>
        <mxCell id="lu-ZIFMta7nP-iSTY2ae-230" value="genre_fk" style="rounded=0;whiteSpace=wrap;html=1;" vertex="1" parent="1">
          <mxGeometry x="860" y="610" width="200" height="40" as="geometry" />
        </mxCell>
        <mxCell id="lu-ZIFMta7nP-iSTY2ae-231" value="VARCHAR 255" style="rounded=0;whiteSpace=wrap;html=1;" vertex="1" parent="1">
          <mxGeometry x="1060" y="610" width="80" height="40" as="geometry" />
        </mxCell>
        <mxCell id="lu-ZIFMta7nP-iSTY2ae-232" value="" style="rounded=0;whiteSpace=wrap;html=1;" vertex="1" parent="1">
          <mxGeometry x="1190" y="530" width="280" height="120" as="geometry" />
        </mxCell>
        <mxCell id="lu-ZIFMta7nP-iSTY2ae-233" value="genre_id" style="rounded=0;whiteSpace=wrap;html=1;" vertex="1" parent="1">
          <mxGeometry x="1190" y="570" width="200" height="40" as="geometry" />
        </mxCell>
        <mxCell id="lu-ZIFMta7nP-iSTY2ae-234" value="genres" style="rounded=0;whiteSpace=wrap;html=1;" vertex="1" parent="1">
          <mxGeometry x="1190" y="530" width="280" height="40" as="geometry" />
        </mxCell>
        <mxCell id="lu-ZIFMta7nP-iSTY2ae-235" value="INT 11" style="rounded=0;whiteSpace=wrap;html=1;" vertex="1" parent="1">
          <mxGeometry x="1390" y="570" width="80" height="40" as="geometry" />
        </mxCell>
        <mxCell id="lu-ZIFMta7nP-iSTY2ae-236" value="genre_name" style="rounded=0;whiteSpace=wrap;html=1;" vertex="1" parent="1">
          <mxGeometry x="1190" y="610" width="200" height="40" as="geometry" />
        </mxCell>
        <mxCell id="lu-ZIFMta7nP-iSTY2ae-237" value="VARCHAR 255" style="rounded=0;whiteSpace=wrap;html=1;" vertex="1" parent="1">
          <mxGeometry x="1390" y="610" width="80" height="40" as="geometry" />
        </mxCell>
        <mxCell id="lu-ZIFMta7nP-iSTY2ae-238" value="" style="endArrow=classic;html=1;rounded=0;entryX=1;entryY=0.5;entryDx=0;entryDy=0;exitX=0;exitY=0.5;exitDx=0;exitDy=0;" edge="1" parent="1" source="lu-ZIFMta7nP-iSTY2ae-233" target="lu-ZIFMta7nP-iSTY2ae-231">
          <mxGeometry width="50" height="50" relative="1" as="geometry">
            <mxPoint x="800" y="470" as="sourcePoint" />
            <mxPoint x="880" y="470" as="targetPoint" />
            <Array as="points">
              <mxPoint x="1170" y="590" />
              <mxPoint x="1170" y="630" />
            </Array>
          </mxGeometry>
        </mxCell>
        <mxCell id="lu-ZIFMta7nP-iSTY2ae-239" value="" style="rounded=0;whiteSpace=wrap;html=1;" vertex="1" parent="1">
          <mxGeometry x="80" y="570" width="280" height="120" as="geometry" />
        </mxCell>
        <mxCell id="lu-ZIFMta7nP-iSTY2ae-240" value="pub_id" style="rounded=0;whiteSpace=wrap;html=1;" vertex="1" parent="1">
          <mxGeometry x="80" y="610" width="200" height="40" as="geometry" />
        </mxCell>
        <mxCell id="lu-ZIFMta7nP-iSTY2ae-241" value="publishers" style="rounded=0;whiteSpace=wrap;html=1;" vertex="1" parent="1">
          <mxGeometry x="80" y="570" width="280" height="40" as="geometry" />
        </mxCell>
        <mxCell id="lu-ZIFMta7nP-iSTY2ae-242" value="INT 11" style="rounded=0;whiteSpace=wrap;html=1;" vertex="1" parent="1">
          <mxGeometry x="280" y="610" width="80" height="40" as="geometry" />
        </mxCell>
        <mxCell id="lu-ZIFMta7nP-iSTY2ae-243" value="pub_name" style="rounded=0;whiteSpace=wrap;html=1;" vertex="1" parent="1">
          <mxGeometry x="80" y="650" width="200" height="40" as="geometry" />
        </mxCell>
        <mxCell id="lu-ZIFMta7nP-iSTY2ae-244" value="VARCHAR 255" style="rounded=0;whiteSpace=wrap;html=1;" vertex="1" parent="1">
          <mxGeometry x="280" y="650" width="80" height="40" as="geometry" />
        </mxCell>
        <mxCell id="lu-ZIFMta7nP-iSTY2ae-245" value="" style="endArrow=classic;html=1;rounded=0;entryX=0;entryY=0.5;entryDx=0;entryDy=0;" edge="1" parent="1">
          <mxGeometry width="50" height="50" relative="1" as="geometry">
            <mxPoint x="780" y="450" as="sourcePoint" />
            <mxPoint x="860" y="589.41" as="targetPoint" />
            <Array as="points">
              <mxPoint x="780" y="590" />
            </Array>
          </mxGeometry>
        </mxCell>
        <mxCell id="lu-ZIFMta7nP-iSTY2ae-246" value="" style="rounded=0;whiteSpace=wrap;html=1;" vertex="1" parent="1">
          <mxGeometry x="110" y="410" width="280" height="120" as="geometry" />
        </mxCell>
        <mxCell id="lu-ZIFMta7nP-iSTY2ae-247" value="lang_id" style="rounded=0;whiteSpace=wrap;html=1;" vertex="1" parent="1">
          <mxGeometry x="110" y="450" width="200" height="40" as="geometry" />
        </mxCell>
        <mxCell id="lu-ZIFMta7nP-iSTY2ae-248" value="book_language" style="rounded=0;whiteSpace=wrap;html=1;" vertex="1" parent="1">
          <mxGeometry x="110" y="410" width="280" height="40" as="geometry" />
        </mxCell>
        <mxCell id="lu-ZIFMta7nP-iSTY2ae-249" value="INT 11" style="rounded=0;whiteSpace=wrap;html=1;" vertex="1" parent="1">
          <mxGeometry x="310" y="450" width="80" height="40" as="geometry" />
        </mxCell>
        <mxCell id="lu-ZIFMta7nP-iSTY2ae-250" value="lang_name" style="rounded=0;whiteSpace=wrap;html=1;" vertex="1" parent="1">
          <mxGeometry x="110" y="490" width="200" height="40" as="geometry" />
        </mxCell>
        <mxCell id="lu-ZIFMta7nP-iSTY2ae-251" value="VARCHAR 255" style="rounded=0;whiteSpace=wrap;html=1;" vertex="1" parent="1">
          <mxGeometry x="310" y="490" width="80" height="40" as="geometry" />
        </mxCell>
        <mxCell id="lu-ZIFMta7nP-iSTY2ae-252" value="" style="endArrow=classic;html=1;rounded=0;entryX=0;entryY=0.5;entryDx=0;entryDy=0;exitX=1;exitY=0.5;exitDx=0;exitDy=0;" edge="1" parent="1" source="lu-ZIFMta7nP-iSTY2ae-249" target="lu-ZIFMta7nP-iSTY2ae-173">
          <mxGeometry width="50" height="50" relative="1" as="geometry">
            <mxPoint x="400" y="340" as="sourcePoint" />
            <mxPoint x="430" y="340" as="targetPoint" />
            <Array as="points">
              <mxPoint x="400" y="470" />
              <mxPoint x="400" y="410" />
            </Array>
          </mxGeometry>
        </mxCell>
        <mxCell id="lu-ZIFMta7nP-iSTY2ae-253" value="" style="rounded=0;whiteSpace=wrap;html=1;" vertex="1" parent="1">
          <mxGeometry x="420" y="750" width="280" height="280" as="geometry" />
        </mxCell>
        <mxCell id="lu-ZIFMta7nP-iSTY2ae-254" value="emp_id" style="rounded=0;whiteSpace=wrap;html=1;" vertex="1" parent="1">
          <mxGeometry x="420" y="790" width="200" height="40" as="geometry" />
        </mxCell>
        <mxCell id="lu-ZIFMta7nP-iSTY2ae-255" value="employee" style="rounded=0;whiteSpace=wrap;html=1;" vertex="1" parent="1">
          <mxGeometry x="420" y="750" width="280" height="40" as="geometry" />
        </mxCell>
        <mxCell id="lu-ZIFMta7nP-iSTY2ae-256" value="INT 11" style="rounded=0;whiteSpace=wrap;html=1;" vertex="1" parent="1">
          <mxGeometry x="620" y="790" width="80" height="40" as="geometry" />
        </mxCell>
        <mxCell id="lu-ZIFMta7nP-iSTY2ae-257" value="emp_uname" style="rounded=0;whiteSpace=wrap;html=1;" vertex="1" parent="1">
          <mxGeometry x="420" y="830" width="200" height="40" as="geometry" />
        </mxCell>
        <mxCell id="lu-ZIFMta7nP-iSTY2ae-258" value="VARCHAR 255" style="rounded=0;whiteSpace=wrap;html=1;" vertex="1" parent="1">
          <mxGeometry x="620" y="830" width="80" height="40" as="geometry" />
        </mxCell>
        <mxCell id="lu-ZIFMta7nP-iSTY2ae-259" value="emp_fname" style="rounded=0;whiteSpace=wrap;html=1;" vertex="1" parent="1">
          <mxGeometry x="420" y="870" width="200" height="40" as="geometry" />
        </mxCell>
        <mxCell id="lu-ZIFMta7nP-iSTY2ae-260" value="VARCHAR 255" style="rounded=0;whiteSpace=wrap;html=1;" vertex="1" parent="1">
          <mxGeometry x="620" y="870" width="80" height="40" as="geometry" />
        </mxCell>
        <mxCell id="lu-ZIFMta7nP-iSTY2ae-261" value="emp_lname" style="rounded=0;whiteSpace=wrap;html=1;" vertex="1" parent="1">
          <mxGeometry x="420" y="910" width="200" height="40" as="geometry" />
        </mxCell>
        <mxCell id="lu-ZIFMta7nP-iSTY2ae-262" value="VARCHAR 255" style="rounded=0;whiteSpace=wrap;html=1;" vertex="1" parent="1">
          <mxGeometry x="620" y="910" width="80" height="40" as="geometry" />
        </mxCell>
        <mxCell id="lu-ZIFMta7nP-iSTY2ae-263" value="emp_password" style="rounded=0;whiteSpace=wrap;html=1;" vertex="1" parent="1">
          <mxGeometry x="420" y="950" width="200" height="40" as="geometry" />
        </mxCell>
        <mxCell id="lu-ZIFMta7nP-iSTY2ae-264" value="VARCHAR 255" style="rounded=0;whiteSpace=wrap;html=1;" vertex="1" parent="1">
          <mxGeometry x="620" y="950" width="80" height="40" as="geometry" />
        </mxCell>
        <mxCell id="lu-ZIFMta7nP-iSTY2ae-265" value="emp_role_fk" style="rounded=0;whiteSpace=wrap;html=1;" vertex="1" parent="1">
          <mxGeometry x="420" y="990" width="200" height="40" as="geometry" />
        </mxCell>
        <mxCell id="lu-ZIFMta7nP-iSTY2ae-266" value="INT 11" style="rounded=0;whiteSpace=wrap;html=1;" vertex="1" parent="1">
          <mxGeometry x="620" y="990" width="80" height="40" as="geometry" />
        </mxCell>
        <mxCell id="lu-ZIFMta7nP-iSTY2ae-267" value="" style="rounded=0;whiteSpace=wrap;html=1;" vertex="1" parent="1">
          <mxGeometry x="90" y="810" width="280" height="160" as="geometry" />
        </mxCell>
        <mxCell id="lu-ZIFMta7nP-iSTY2ae-268" value="role_id" style="rounded=0;whiteSpace=wrap;html=1;" vertex="1" parent="1">
          <mxGeometry x="90" y="850" width="200" height="40" as="geometry" />
        </mxCell>
        <mxCell id="lu-ZIFMta7nP-iSTY2ae-269" value="employee_roles" style="rounded=0;whiteSpace=wrap;html=1;" vertex="1" parent="1">
          <mxGeometry x="90" y="810" width="280" height="40" as="geometry" />
        </mxCell>
        <mxCell id="lu-ZIFMta7nP-iSTY2ae-270" value="" style="edgeStyle=orthogonalEdgeStyle;rounded=0;orthogonalLoop=1;jettySize=auto;html=1;entryX=0;entryY=0.5;entryDx=0;entryDy=0;" edge="1" parent="1" source="lu-ZIFMta7nP-iSTY2ae-271" target="lu-ZIFMta7nP-iSTY2ae-265">
          <mxGeometry relative="1" as="geometry">
            <Array as="points">
              <mxPoint x="400" y="870" />
              <mxPoint x="400" y="1010" />
            </Array>
          </mxGeometry>
        </mxCell>
        <mxCell id="lu-ZIFMta7nP-iSTY2ae-271" value="INT 11" style="rounded=0;whiteSpace=wrap;html=1;" vertex="1" parent="1">
          <mxGeometry x="290" y="850" width="80" height="40" as="geometry" />
        </mxCell>
        <mxCell id="lu-ZIFMta7nP-iSTY2ae-272" value="role_name" style="rounded=0;whiteSpace=wrap;html=1;" vertex="1" parent="1">
          <mxGeometry x="90" y="890" width="200" height="40" as="geometry" />
        </mxCell>
        <mxCell id="lu-ZIFMta7nP-iSTY2ae-273" value="VARCHAR 255" style="rounded=0;whiteSpace=wrap;html=1;" vertex="1" parent="1">
          <mxGeometry x="290" y="890" width="80" height="40" as="geometry" />
        </mxCell>
        <mxCell id="lu-ZIFMta7nP-iSTY2ae-274" value="role_value" style="rounded=0;whiteSpace=wrap;html=1;" vertex="1" parent="1">
          <mxGeometry x="90" y="930" width="200" height="40" as="geometry" />
        </mxCell>
        <mxCell id="lu-ZIFMta7nP-iSTY2ae-275" value="INT 11" style="rounded=0;whiteSpace=wrap;html=1;" vertex="1" parent="1">
          <mxGeometry x="290" y="930" width="80" height="40" as="geometry" />
        </mxCell>
        <mxCell id="lu-ZIFMta7nP-iSTY2ae-276" value="" style="endArrow=classic;html=1;rounded=0;entryX=1;entryY=0.5;entryDx=0;entryDy=0;exitX=1;exitY=0.5;exitDx=0;exitDy=0;" edge="1" parent="1" source="lu-ZIFMta7nP-iSTY2ae-256" target="lu-ZIFMta7nP-iSTY2ae-309">
          <mxGeometry width="50" height="50" relative="1" as="geometry">
            <mxPoint x="570" y="520" as="sourcePoint" />
            <mxPoint x="620" y="470" as="targetPoint" />
            <Array as="points">
              <mxPoint x="730" y="810" />
              <mxPoint x="730" y="610" />
            </Array>
          </mxGeometry>
        </mxCell>
        <mxCell id="lu-ZIFMta7nP-iSTY2ae-277" value="" style="rounded=0;whiteSpace=wrap;html=1;" vertex="1" parent="1">
          <mxGeometry x="860" y="830" width="280" height="160" as="geometry" />
        </mxCell>
        <mxCell id="lu-ZIFMta7nP-iSTY2ae-278" value="customer_stories" style="rounded=0;whiteSpace=wrap;html=1;" vertex="1" parent="1">
          <mxGeometry x="860" y="830" width="280" height="40" as="geometry" />
        </mxCell>
        <mxCell id="lu-ZIFMta7nP-iSTY2ae-279" value="storie_id" style="rounded=0;whiteSpace=wrap;html=1;" vertex="1" parent="1">
          <mxGeometry x="860" y="870" width="200" height="40" as="geometry" />
        </mxCell>
        <mxCell id="lu-ZIFMta7nP-iSTY2ae-280" value="INT 11" style="rounded=0;whiteSpace=wrap;html=1;" vertex="1" parent="1">
          <mxGeometry x="1060" y="870" width="80" height="40" as="geometry" />
        </mxCell>
        <mxCell id="lu-ZIFMta7nP-iSTY2ae-281" value="storie_title" style="rounded=0;whiteSpace=wrap;html=1;" vertex="1" parent="1">
          <mxGeometry x="860" y="910" width="200" height="40" as="geometry" />
        </mxCell>
        <mxCell id="lu-ZIFMta7nP-iSTY2ae-282" value="INT 11" style="rounded=0;whiteSpace=wrap;html=1;" vertex="1" parent="1">
          <mxGeometry x="1060" y="910" width="80" height="40" as="geometry" />
        </mxCell>
        <mxCell id="lu-ZIFMta7nP-iSTY2ae-283" value="storie_content" style="rounded=0;whiteSpace=wrap;html=1;" vertex="1" parent="1">
          <mxGeometry x="860" y="950" width="200" height="40" as="geometry" />
        </mxCell>
        <mxCell id="lu-ZIFMta7nP-iSTY2ae-284" value="INT 11" style="rounded=0;whiteSpace=wrap;html=1;" vertex="1" parent="1">
          <mxGeometry x="1060" y="950" width="80" height="40" as="geometry" />
        </mxCell>
        <mxCell id="lu-ZIFMta7nP-iSTY2ae-285" value="" style="rounded=0;whiteSpace=wrap;html=1;" vertex="1" parent="1">
          <mxGeometry x="420" y="1060" width="280" height="200" as="geometry" />
        </mxCell>
        <mxCell id="lu-ZIFMta7nP-iSTY2ae-286" value="feat_item_id" style="rounded=0;whiteSpace=wrap;html=1;" vertex="1" parent="1">
          <mxGeometry x="420" y="1100" width="200" height="40" as="geometry" />
        </mxCell>
        <mxCell id="lu-ZIFMta7nP-iSTY2ae-287" value="featured_items" style="rounded=0;whiteSpace=wrap;html=1;" vertex="1" parent="1">
          <mxGeometry x="420" y="1060" width="280" height="40" as="geometry" />
        </mxCell>
        <mxCell id="lu-ZIFMta7nP-iSTY2ae-288" value="INT 11" style="rounded=0;whiteSpace=wrap;html=1;" vertex="1" parent="1">
          <mxGeometry x="620" y="1100" width="80" height="40" as="geometry" />
        </mxCell>
        <mxCell id="lu-ZIFMta7nP-iSTY2ae-289" value="item_type_fk" style="rounded=0;whiteSpace=wrap;html=1;" vertex="1" parent="1">
          <mxGeometry x="420" y="1140" width="200" height="40" as="geometry" />
        </mxCell>
        <mxCell id="lu-ZIFMta7nP-iSTY2ae-290" value="INT 11" style="rounded=0;whiteSpace=wrap;html=1;" vertex="1" parent="1">
          <mxGeometry x="620" y="1140" width="80" height="40" as="geometry" />
        </mxCell>
        <mxCell id="lu-ZIFMta7nP-iSTY2ae-291" value="book_fk" style="rounded=0;whiteSpace=wrap;html=1;" vertex="1" parent="1">
          <mxGeometry x="420" y="1180" width="200" height="40" as="geometry" />
        </mxCell>
        <mxCell id="lu-ZIFMta7nP-iSTY2ae-292" value="INT 11" style="rounded=0;whiteSpace=wrap;html=1;" vertex="1" parent="1">
          <mxGeometry x="620" y="1180" width="80" height="40" as="geometry" />
        </mxCell>
        <mxCell id="lu-ZIFMta7nP-iSTY2ae-293" value="" style="endArrow=classic;html=1;rounded=0;entryX=1;entryY=0.5;entryDx=0;entryDy=0;" edge="1" parent="1" target="lu-ZIFMta7nP-iSTY2ae-292">
          <mxGeometry width="50" height="50" relative="1" as="geometry">
            <mxPoint x="780" y="590" as="sourcePoint" />
            <mxPoint x="790" y="670" as="targetPoint" />
            <Array as="points">
              <mxPoint x="780" y="900" />
              <mxPoint x="780" y="1070" />
              <mxPoint x="780" y="1200" />
            </Array>
          </mxGeometry>
        </mxCell>
        <mxCell id="lu-ZIFMta7nP-iSTY2ae-294" value="" style="endArrow=none;html=1;rounded=0;entryX=1;entryY=0.5;entryDx=0;entryDy=0;" edge="1" parent="1" target="lu-ZIFMta7nP-iSTY2ae-235">
          <mxGeometry width="50" height="50" relative="1" as="geometry">
            <mxPoint x="860" y="1140" as="sourcePoint" />
            <mxPoint x="790" y="670" as="targetPoint" />
            <Array as="points">
              <mxPoint x="1540" y="1140" />
              <mxPoint x="1540" y="590" />
            </Array>
          </mxGeometry>
        </mxCell>
        <mxCell id="lu-ZIFMta7nP-iSTY2ae-295" value="" style="rounded=0;whiteSpace=wrap;html=1;" vertex="1" parent="1">
          <mxGeometry x="90" y="1000" width="280" height="120" as="geometry" />
        </mxCell>
        <mxCell id="lu-ZIFMta7nP-iSTY2ae-296" value="type_id" style="rounded=0;whiteSpace=wrap;html=1;" vertex="1" parent="1">
          <mxGeometry x="90" y="1040" width="200" height="40" as="geometry" />
        </mxCell>
        <mxCell id="lu-ZIFMta7nP-iSTY2ae-297" value="featured_item_types" style="rounded=0;whiteSpace=wrap;html=1;" vertex="1" parent="1">
          <mxGeometry x="90" y="1000" width="280" height="40" as="geometry" />
        </mxCell>
        <mxCell id="lu-ZIFMta7nP-iSTY2ae-298" value="INT 11" style="rounded=0;whiteSpace=wrap;html=1;" vertex="1" parent="1">
          <mxGeometry x="290" y="1040" width="80" height="40" as="geometry" />
        </mxCell>
        <mxCell id="lu-ZIFMta7nP-iSTY2ae-299" value="type_name" style="rounded=0;whiteSpace=wrap;html=1;" vertex="1" parent="1">
          <mxGeometry x="90" y="1080" width="200" height="40" as="geometry" />
        </mxCell>
        <mxCell id="lu-ZIFMta7nP-iSTY2ae-300" value="INT 11" style="rounded=0;whiteSpace=wrap;html=1;" vertex="1" parent="1">
          <mxGeometry x="290" y="1080" width="80" height="40" as="geometry" />
        </mxCell>
        <mxCell id="lu-ZIFMta7nP-iSTY2ae-301" value="" style="endArrow=classic;html=1;rounded=0;exitX=1;exitY=0.5;exitDx=0;exitDy=0;entryX=0;entryY=0.5;entryDx=0;entryDy=0;" edge="1" parent="1" source="lu-ZIFMta7nP-iSTY2ae-298" target="lu-ZIFMta7nP-iSTY2ae-289">
          <mxGeometry width="50" height="50" relative="1" as="geometry">
            <mxPoint x="470" y="960" as="sourcePoint" />
            <mxPoint x="520" y="910" as="targetPoint" />
            <Array as="points">
              <mxPoint x="400" y="1060" />
              <mxPoint x="400" y="1160" />
            </Array>
          </mxGeometry>
        </mxCell>
        <mxCell id="lu-ZIFMta7nP-iSTY2ae-302" value="" style="rounded=0;whiteSpace=wrap;html=1;" vertex="1" parent="1">
          <mxGeometry x="80" y="250" width="280" height="120" as="geometry" />
        </mxCell>
        <mxCell id="lu-ZIFMta7nP-iSTY2ae-303" value="cat_id" style="rounded=0;whiteSpace=wrap;html=1;" vertex="1" parent="1">
          <mxGeometry x="80" y="290" width="200" height="40" as="geometry" />
        </mxCell>
        <mxCell id="lu-ZIFMta7nP-iSTY2ae-304" value="book_categories" style="rounded=0;whiteSpace=wrap;html=1;" vertex="1" parent="1">
          <mxGeometry x="80" y="250" width="280" height="40" as="geometry" />
        </mxCell>
        <mxCell id="lu-ZIFMta7nP-iSTY2ae-305" value="INT 11" style="rounded=0;whiteSpace=wrap;html=1;" vertex="1" parent="1">
          <mxGeometry x="280" y="290" width="80" height="40" as="geometry" />
        </mxCell>
        <mxCell id="lu-ZIFMta7nP-iSTY2ae-306" value="cat_name" style="rounded=0;whiteSpace=wrap;html=1;" vertex="1" parent="1">
          <mxGeometry x="80" y="330" width="200" height="40" as="geometry" />
        </mxCell>
        <mxCell id="lu-ZIFMta7nP-iSTY2ae-307" value="VARCHAR 255" style="rounded=0;whiteSpace=wrap;html=1;" vertex="1" parent="1">
          <mxGeometry x="280" y="330" width="80" height="40" as="geometry" />
        </mxCell>
        <mxCell id="lu-ZIFMta7nP-iSTY2ae-308" value="employee_fk" style="rounded=0;whiteSpace=wrap;html=1;movable=1;resizable=1;rotatable=1;deletable=1;editable=1;locked=0;connectable=1;" vertex="1" parent="1">
          <mxGeometry x="420" y="590" width="200" height="40" as="geometry" />
        </mxCell>
        <mxCell id="lu-ZIFMta7nP-iSTY2ae-309" value="INT 11" style="rounded=0;whiteSpace=wrap;html=1;movable=1;resizable=1;rotatable=1;deletable=1;editable=1;locked=0;connectable=1;" vertex="1" parent="1">
          <mxGeometry x="620" y="590" width="80" height="40" as="geometry" />
        </mxCell>
        <mxCell id="lu-ZIFMta7nP-iSTY2ae-310" value="" style="endArrow=classic;html=1;rounded=0;exitX=0;exitY=0.5;exitDx=0;exitDy=0;entryX=0;entryY=0.5;entryDx=0;entryDy=0;" edge="1" parent="1" source="lu-ZIFMta7nP-iSTY2ae-303" target="lu-ZIFMta7nP-iSTY2ae-171">
          <mxGeometry width="50" height="50" relative="1" as="geometry">
            <mxPoint x="260" y="270" as="sourcePoint" />
            <mxPoint x="310" y="220" as="targetPoint" />
            <Array as="points">
              <mxPoint x="50" y="310" />
              <mxPoint x="50" y="390" />
              <mxPoint x="380" y="390" />
              <mxPoint x="380" y="370" />
            </Array>
          </mxGeometry>
        </mxCell>
        <mxCell id="lu-ZIFMta7nP-iSTY2ae-311" value="genre_fk" style="rounded=0;whiteSpace=wrap;html=1;" vertex="1" parent="1">
          <mxGeometry x="420" y="1220" width="200" height="40" as="geometry" />
        </mxCell>
        <mxCell id="lu-ZIFMta7nP-iSTY2ae-312" value="INT 11" style="rounded=0;whiteSpace=wrap;html=1;" vertex="1" parent="1">
          <mxGeometry x="620" y="1220" width="80" height="40" as="geometry" />
        </mxCell>
        <mxCell id="lu-ZIFMta7nP-iSTY2ae-313" value="" style="endArrow=classic;html=1;rounded=0;entryX=1;entryY=0.5;entryDx=0;entryDy=0;" edge="1" parent="1" target="lu-ZIFMta7nP-iSTY2ae-312">
          <mxGeometry width="50" height="50" relative="1" as="geometry">
            <mxPoint x="860" y="1140" as="sourcePoint" />
            <mxPoint x="910" y="980" as="targetPoint" />
            <Array as="points">
              <mxPoint x="860" y="1240" />
            </Array>
          </mxGeometry>
        </mxCell>
        <mxCell id="lu-ZIFMta7nP-iSTY2ae-314" value="publisher_fk" style="rounded=0;whiteSpace=wrap;html=1;movable=1;resizable=1;rotatable=1;deletable=1;editable=1;locked=0;connectable=1;" vertex="1" parent="1">
          <mxGeometry x="420" y="630" width="200" height="40" as="geometry" />
        </mxCell>
        <mxCell id="lu-ZIFMta7nP-iSTY2ae-315" value="INT 11" style="rounded=0;whiteSpace=wrap;html=1;movable=1;resizable=1;rotatable=1;deletable=1;editable=1;locked=0;connectable=1;" vertex="1" parent="1">
          <mxGeometry x="620" y="630" width="80" height="40" as="geometry" />
        </mxCell>
        <mxCell id="lu-ZIFMta7nP-iSTY2ae-316" value="" style="endArrow=classic;html=1;rounded=0;entryX=0;entryY=0.5;entryDx=0;entryDy=0;exitX=1;exitY=0.5;exitDx=0;exitDy=0;" edge="1" parent="1" source="lu-ZIFMta7nP-iSTY2ae-242" target="lu-ZIFMta7nP-iSTY2ae-314">
          <mxGeometry width="50" height="50" relative="1" as="geometry">
            <mxPoint x="440" y="660" as="sourcePoint" />
            <mxPoint x="490" y="610" as="targetPoint" />
            <Array as="points">
              <mxPoint x="390" y="630" />
              <mxPoint x="390" y="650" />
            </Array>
          </mxGeometry>
        </mxCell>
      </root>
    </mxGraphModel>
  </diagram>
</mxfile>
